<svg width="24" height="25" viewBox="0 0 24 25" fill="none" xmlns="http://www.w3.org/2000/svg">
<path d="M15.707 5.79287L17.4999 3.99998C17.8904 3.60946 18.5236 3.60946 18.9141 3.99998L20.4999 5.58577C20.8904 5.97629 20.8904 6.60945 20.4999 6.99998L18.707 8.79287M15.707 5.79287L9.59874 11.9012C9.34243 12.1575 9.16059 12.4787 9.07267 12.8303L8.20703 16.2929L11.6696 15.4272C12.0213 15.3393 12.3424 15.1575 12.5988 14.9012L18.707 8.79287M15.707 5.79287L18.707 8.79287" stroke="white" stroke-width="1.5" stroke-linejoin="round"/>
<path d="M10.707 5.29291H5.20703C4.10246 5.29291 3.20703 6.18834 3.20703 7.29291V19.2929C3.20703 20.3975 4.10246 21.2929 5.20703 21.2929H17.207C18.3116 21.2929 19.207 20.3975 19.207 19.2929V13.7929" stroke="white" stroke-width="1.5" stroke-linecap="round" stroke-linejoin="round"/>
</svg>
