<svg width="25" height="24" viewBox="0 0 25 24" fill="none" xmlns="http://www.w3.org/2000/svg">
<g clip-path="url(#clip0_3685_5111)">
<path d="M12.7505 22.291C12.6547 22.2909 12.5602 22.2681 12.4748 22.2245C12.4103 22.1921 10.8737 21.4051 8.86627 19.9451C7.01376 18.5953 4.39777 16.3945 2.46863 13.5632C2.18596 13.1497 1.9313 12.7178 1.70637 12.2703C1.66006 12.1775 1.63821 12.0745 1.6429 11.971C1.64758 11.8675 1.67864 11.7669 1.73313 11.6787C1.78761 11.5905 1.86373 11.5176 1.95428 11.4671C2.04483 11.4166 2.1468 11.39 2.25049 11.39H6.16231L7.15364 9.97093C7.2134 9.88524 7.29423 9.8164 7.38833 9.77102C7.48243 9.72565 7.58664 9.70529 7.6909 9.71189C7.79515 9.71849 7.89596 9.75183 7.98358 9.80871C8.07121 9.86558 8.14271 9.94407 8.19119 10.0366L9.38079 12.3072L11.3821 8.02151C11.4358 7.90602 11.5243 7.81029 11.6353 7.74782C11.7463 7.68534 11.874 7.65928 12.0006 7.6733C12.1272 7.68732 12.2462 7.74071 12.3408 7.82595C12.4354 7.9112 12.5008 8.02398 12.5279 8.14842L13.7767 13.8329L15.538 10.0622C15.5859 9.95942 15.6616 9.87212 15.7565 9.81012C15.8514 9.74812 15.9618 9.71388 16.0751 9.71127C16.1885 9.70865 16.3003 9.73777 16.398 9.79533C16.4956 9.85289 16.5753 9.9366 16.6279 10.037L17.9233 12.5103L18.523 11.6507C18.579 11.5705 18.6536 11.5049 18.7405 11.4597C18.8273 11.4144 18.9238 11.3908 19.0217 11.3908H22.867C24.0262 8.80768 23.6657 6.23549 21.8748 4.45311C19.8285 2.41571 16.4989 2.41571 14.4522 4.45311C14.1051 4.79856 13.6681 5.20766 13.2054 5.64109L13.1669 5.67677C13.0542 5.78224 12.9057 5.84091 12.7513 5.84091C12.597 5.84091 12.4484 5.78224 12.3357 5.67677L12.2952 5.63906C11.8326 5.20401 11.3963 4.79856 11.0496 4.4519C9.00332 2.4149 5.67333 2.4149 3.62701 4.4519C2.27279 5.79962 1.72138 7.62335 2.06925 9.58615C2.09757 9.74492 2.06166 9.90844 1.96943 10.0407C1.87721 10.173 1.7362 10.2633 1.57744 10.2916C1.4988 10.3057 1.41816 10.304 1.34014 10.2869C1.26212 10.2697 1.18824 10.2374 1.12273 10.1917C1.05722 10.146 1.00135 10.0878 0.958321 10.0205C0.915291 9.95319 0.885943 9.87807 0.871951 9.79942C0.663142 8.62807 0.722744 7.49239 1.04873 6.42402C1.37765 5.35108 1.96877 4.37703 2.76866 3.5899C5.28855 1.08177 9.38809 1.08177 11.908 3.5899C12.1476 3.82871 12.4375 4.10402 12.7505 4.39838C13.0635 4.10402 13.3534 3.83074 13.5935 3.5899C16.1129 1.08177 20.2129 1.08177 22.7324 3.5899C23.815 4.65586 24.5065 6.05577 24.6952 7.56335C24.8861 9.08217 24.5735 10.7093 23.7947 12.2694C23.743 12.3729 23.6628 12.4595 23.5636 12.519C23.4645 12.5786 23.3504 12.6086 23.2347 12.6056H19.3395L18.3478 14.0247C18.2883 14.1106 18.2076 14.1798 18.1136 14.2256C18.0195 14.2713 17.9153 14.292 17.8109 14.2857C17.7065 14.2794 17.6055 14.2462 17.5177 14.1895C17.4299 14.1328 17.3581 14.0543 17.3094 13.9618L16.1198 11.6913L14.1185 15.9749C14.0646 16.0899 13.9761 16.1852 13.8653 16.2473C13.7545 16.3094 13.627 16.3353 13.5008 16.3213C13.3745 16.3073 13.2558 16.2541 13.1613 16.1692C13.0669 16.0844 13.0013 15.972 12.9739 15.848L11.7251 10.1635L9.96384 13.9342C9.91586 14.0369 9.84018 14.1241 9.74531 14.186C9.65044 14.2479 9.54017 14.2821 9.42691 14.2847C9.31365 14.2873 9.20191 14.2583 9.10429 14.2008C9.00667 14.1433 8.92704 14.0597 8.87438 13.9594L7.57896 11.4861L6.97848 12.3453C6.92245 12.4255 6.8479 12.491 6.76115 12.5362C6.6744 12.5815 6.57802 12.6051 6.48018 12.6052H3.29453C3.35251 12.6964 3.41252 12.7868 3.47375 12.8768C5.2995 15.556 7.79345 17.6567 9.56406 18.9489C10.5833 19.6951 11.6473 20.3781 12.7501 20.994C13.8615 20.3805 18.096 17.8939 21.1596 14.0534C21.2087 13.9891 21.2702 13.9352 21.3404 13.8949C21.4106 13.8546 21.4882 13.8287 21.5686 13.8188C21.6489 13.8089 21.7304 13.8151 21.8083 13.8371C21.8862 13.8591 21.959 13.8964 22.0223 13.9469C22.0856 13.9974 22.1381 14.06 22.1769 14.1311C22.2157 14.2021 22.2399 14.2802 22.2481 14.3607C22.2563 14.4413 22.2484 14.5227 22.2247 14.6001C22.2011 14.6775 22.1622 14.7494 22.1104 14.8116C20.1715 17.2444 17.8085 19.1269 16.1677 20.2796C14.3898 21.5284 13.0814 22.1986 13.0262 22.2258C12.9407 22.2689 12.8463 22.2913 12.7505 22.291Z" fill="#1376FF"/>
</g>
<defs>
<clipPath id="clip0_3685_5111">
<rect width="24" height="24" fill="white" transform="translate(0.75)"/>
</clipPath>
</defs>
</svg>
