<svg width="20" height="20" viewBox="0 0 20 20" fill="none" xmlns="http://www.w3.org/2000/svg">
<path d="M14.1663 1.66663V3.33329M9.99967 1.66663V3.33329M5.83301 1.66663V3.33329" stroke="#B0B0B0" stroke-width="1.5" stroke-linecap="round" stroke-linejoin="round"/>
<path d="M2.9165 8.33333C2.9165 5.58347 2.9165 4.20854 3.77078 3.35427C4.62505 2.5 5.99998 2.5 8.74984 2.5H11.2498C13.9997 2.5 15.3746 2.5 16.2289 3.35427C17.0832 4.20854 17.0832 5.58347 17.0832 8.33333V12.5C17.0832 15.2499 17.0832 16.6248 16.2289 17.4791C15.3746 18.3333 13.9997 18.3333 11.2498 18.3333H8.74984C5.99998 18.3333 4.62505 18.3333 3.77078 17.4791C2.9165 16.6248 2.9165 15.2499 2.9165 12.5V8.33333Z" stroke="#B0B0B0" stroke-width="1.5" stroke-linecap="round" stroke-linejoin="round"/>
<path d="M6.6665 12.4999H9.99984M6.6665 8.33325H13.3332" stroke="#B0B0B0" stroke-width="1.5" stroke-linecap="round"/>
</svg>
